<svg width="33.000000" height="46.000000" viewBox="0 0 33 46" fill="none" xmlns="http://www.w3.org/2000/svg" xmlns:xlink="http://www.w3.org/1999/xlink">
	<desc>
			Created with Pixso.
	</desc>
	<defs/>
	<path id="Vector" d="M32.58 46C27.12 46 21.6 46 16.14 46C10.91 46 5.7 46 0.47 46C0.18 46 0.12 45.94 0.12 45.94C0.06 45.88 0 45.82 0 45.53C0 41.34 0 37.09 0 32.84L0 28.93L2.22 28.93L2.22 24.39L3.72 24.33L3.72 19.91L5.58 19.91L5.58 15.43L7.37 15.43L7.37 11.87L7.37 11.76C7.37 11.64 7.37 11.47 7.37 11.35C7.31 11.06 7.37 11 7.43 11C7.5 10.94 7.62 10.94 7.68 10.94C7.74 10.94 7.79 10.94 7.85 10.94C7.91 10.94 8.04 10.94 8.1 10.94C8.16 10.94 8.45 10.94 8.52 10.94L8.81 10.94L8.81 6.46L10.91 6.46L10.91 0L11.58 0L11.64 1.33L13.91 1.33L13.91 0L14.52 0L14.52 1.33L18.54 1.33L18.54 0L19.2 0L19.2 1.33L21.24 1.33L21.35 0L21.96 0L21.96 6.46C21.96 6.46 23.16 6.46 23.33 6.46C23.58 6.46 23.75 6.46 24 6.46L24.06 6.46C24.18 6.46 24.24 6.46 24.24 6.52C24.24 6.52 24.29 6.57 24.29 6.81C24.29 7.56 24.29 8.32 24.29 9.02L24.29 10.88L25.74 10.94L25.74 15.37L27.48 15.37L27.48 19.91L29.39 19.91L29.39 23.05C29.39 24.28 29.52 24.39 30.77 24.39C30.83 24.39 30.83 24.39 30.89 24.39L30.89 28.88L33 28.88C33 29.05 33 29.17 33 29.28L33 33.65C33 37.61 33 41.51 33 45.47C33 45.7 32.93 45.82 32.93 45.88C32.93 45.94 32.81 46 32.58 46ZM11.39 45.3L21.72 45.3L21.72 35.86C21.72 35.28 21.72 34.93 21.54 34.7C21.29 34.41 21 34.41 20.45 34.41L20.27 34.41C20.04 34.41 20.04 34.35 19.98 34.35C19.98 34.35 19.91 34.29 19.91 34.06C19.91 33.71 19.91 33.36 19.91 33.01L19.91 32.25L13.25 32.25L13.25 33.07C13.25 33.48 13.25 33.83 13.25 34.23C13.25 34.41 13.25 34.41 13.25 34.41C13.25 34.41 13.25 34.41 13.14 34.41C12.89 34.41 12.72 34.41 12.54 34.41L11.39 34.41L11.39 45.3ZM22.37 45.3L32.27 45.3L32.27 29.57L0.72 29.57L0.72 45.3L10.79 45.3L10.79 33.83L12.66 33.83L12.66 31.73L20.64 31.73L20.64 33.83L22.37 33.83L22.37 45.3ZM20.04 26.26C20.1 26.9 20.22 27.48 20.22 28.12C20.27 28.82 20.75 28.93 21.12 28.93C21.66 28.93 22.14 28.93 22.56 28.93L24.29 28.93L29.33 28.93C29.52 28.93 29.75 28.93 29.93 28.76C30.06 28.64 30.12 28.47 30.12 28.24C30.12 27.6 30.12 26.95 30.12 26.31L30.12 25.15L19.91 25.15C19.91 25.09 20.04 25.96 20.04 26.26ZM2.93 28.88L12.41 28.88L12.89 25.09L2.93 25.09L2.93 28.88ZM13.08 28.76L19.68 28.76L19.2 25.03L13.5 25.03L13.08 28.76ZM5.1 20.55C4.85 20.55 4.68 20.61 4.56 20.72C4.37 20.9 4.37 21.13 4.37 21.31C4.37 22.06 4.37 22.82 4.37 23.52C4.37 23.69 4.37 23.98 4.56 24.16C4.68 24.28 4.91 24.33 5.16 24.33C6.12 24.33 7.08 24.33 8.04 24.33C9.41 24.33 10.85 24.33 12.24 24.33C12.54 24.33 12.96 24.04 13.02 23.75C13.14 23.05 13.2 22.35 13.25 21.66L13.37 20.67L13.14 20.61L13.02 20.55C12.96 20.55 12.89 20.49 12.77 20.49L10.2 20.49C8.45 20.55 6.77 20.55 5.1 20.55ZM19.5 21.66C19.56 22.41 19.68 23.11 19.79 23.81C19.85 24.1 20.33 24.39 20.64 24.39C21.96 24.39 23.33 24.39 24.66 24.39L27.89 24.39C28.02 24.39 28.14 24.39 28.25 24.33L28.43 24.33L28.68 24.28L28.68 20.55L19.37 20.55L19.5 21.66ZM16.79 20.55C16.08 20.55 15.29 20.55 14.58 20.55C14.27 20.55 14.04 20.84 13.98 21.07C13.85 21.77 13.79 22.53 13.68 23.29L13.56 24.28L19.08 24.28L18.66 20.49L16.79 20.55ZM6.89 16.07C6.66 16.07 6.29 16.36 6.29 16.65C6.29 17.41 6.29 18.16 6.29 18.86L6.29 19.85L13.5 19.85L13.91 16.01L11.46 16.01C9.89 16.07 8.39 16.07 6.89 16.07ZM16.37 16.07C16.02 16.07 15.6 16.07 15.24 16.07C14.93 16.07 14.58 16.36 14.58 16.65C14.46 17.35 14.39 18.05 14.33 18.8L14.22 19.85L18.6 19.85L18.48 18.74C18.41 18.05 18.29 17.35 18.24 16.65C18.18 16.36 17.81 16.07 17.58 16.07C17.16 16.07 16.79 16.07 16.37 16.07ZM19.31 19.85L26.81 19.85L26.81 16.12L18.83 16.12L19.31 19.85ZM8.04 15.43L10.5 15.43C11.46 15.43 12.35 15.43 13.31 15.43C13.56 15.43 13.98 15.19 13.98 14.9C14.1 14.14 14.16 13.45 14.22 12.69L14.33 11.7L8.04 11.7L8.04 15.43ZM16.37 11.64C16.08 11.64 15.77 11.64 15.48 11.64C15.24 11.64 15.06 11.93 15 12.11C14.87 12.86 14.81 13.62 14.75 14.38L14.64 15.37L18.06 15.37L17.93 14.2C17.87 13.5 17.75 12.86 17.7 12.22C17.7 12.11 17.58 11.7 17.22 11.7C16.98 11.64 16.68 11.64 16.37 11.64ZM18.77 15.37L25.08 15.37L25.08 11.64L18.29 11.64L18.77 15.37ZM9.54 10.88L11.75 10.88C12.48 10.88 13.2 10.88 13.91 10.88C14.16 10.88 14.58 10.65 14.64 10.36C14.75 9.6 14.81 8.85 14.87 8.09L15 7.1L9.54 7.1L9.54 10.88ZM17.87 8.03C17.93 8.85 18.06 9.6 18.18 10.36C18.24 10.65 18.6 10.83 18.83 10.83C19.68 10.83 20.52 10.83 21.35 10.83L23.64 10.83L23.64 9.66C23.64 9.02 23.64 8.44 23.64 7.8C23.64 7.51 23.58 7.33 23.46 7.16C23.27 6.98 22.98 6.92 22.79 6.92C22.37 6.92 22.08 6.92 21.72 6.92L20.04 6.92L17.81 6.92L17.87 8.03ZM16.5 7.16C16.5 7.16 15.72 7.16 15.66 7.62C15.54 8.38 15.48 9.14 15.35 9.95L15.24 10.94L17.58 10.94L17.45 9.89C17.39 9.14 17.27 8.44 17.22 7.68C17.16 7.33 16.74 7.16 16.5 7.16ZM17.1 6.4C18.18 6.4 19.31 6.4 20.39 6.46L20.45 6.46C20.64 6.46 20.93 6.46 21.12 6.23C21.29 5.99 21.29 5.76 21.29 5.53C21.29 5.06 21.29 4.6 21.29 4.13C21.29 3.95 21.29 3.72 21.29 3.55C21.29 2.96 21.29 2.62 21.18 2.38C21 1.97 20.52 1.97 20.33 1.97C20.16 1.97 19.85 1.97 19.56 2.03C19.43 2.03 19.37 2.09 19.31 2.15L19.25 2.21L19.14 2.27L19.14 5L13.79 5L13.79 2.09L11.52 2.09L11.52 6.4L12.06 6.46C12.24 6.46 12.41 6.46 12.6 6.46C13.2 6.46 13.74 6.46 14.33 6.46C15.24 6.46 16.08 6.46 16.98 6.46L17.1 6.46L17.1 6.4ZM14.52 4.36L18.41 4.36L18.41 2.09L14.52 2.09L14.52 4.36Z" fill="#1A1A1A" fill-opacity="1.000000" fill-rule="nonzero"/>
</svg>
