<svg width="70.175293" height="49.385742" viewBox="0 0 70.1753 49.3857" fill="none" xmlns="http://www.w3.org/2000/svg" xmlns:xlink="http://www.w3.org/1999/xlink">
	<desc>
			Created with Pixso.
	</desc>
	<defs/>
	<path id="Vector" d="M33.68 49.38C31.4 49.38 29.29 49.29 27.28 49.12C25.43 48.94 23.59 48.68 21.92 48.42C21.05 48.24 20.17 48.07 19.29 47.89C18.94 47.8 18.5 47.71 18.15 47.63C17.71 47.54 17.63 47.36 17.63 46.92C17.63 46.66 17.71 46.49 17.71 46.22C17.71 45.96 17.8 45.61 17.8 45.35C17.8 45.08 17.8 44.82 17.71 44.64C17.54 44.47 17.36 44.47 17.01 44.47C15.17 44.47 13.33 44.47 11.57 44.47L0.52 44.47C0.43 44.47 0.35 44.47 0.26 44.47C0.08 44.21 0 44.12 0 43.85C0.08 43.59 0.17 43.5 0.35 43.5L0.78 43.5L7.54 43.5C10.78 43.5 14.03 43.5 17.19 43.5C17.71 43.5 17.98 43.24 17.98 42.8C18.15 40.78 18.33 38.77 18.5 36.75L18.77 33.94C18.85 32.63 19.03 31.31 19.12 30C19.21 29.21 19.21 28.42 19.29 27.63C19.38 27.01 19.38 26.31 19.47 25.7C19.56 25 19.56 24.29 19.64 23.68C19.73 22.36 19.82 21.05 19.91 19.82C20 18.5 20 17.19 20.08 15.87C20.08 15.26 20.08 14.56 20.17 13.94C20.17 13.77 20.17 13.59 20 13.5C19.91 13.42 19.73 13.33 19.56 13.33C19.38 13.33 19.29 13.33 19.21 13.33C19.12 13.33 18.94 13.33 18.85 13.33C18.5 13.33 18.5 13.15 18.5 13.07C18.5 12.8 18.59 12.63 18.77 12.63L22.89 11.05C22.98 11.05 23.07 10.96 23.15 10.96C23.33 10.87 23.5 10.87 23.77 10.7C23.94 10.61 24.12 10.35 24.12 10.08C24.12 9.56 24.12 9.12 24.12 8.59L24.12 7.89C24.12 7.45 24.21 7.28 24.73 7.28C24.82 7.28 24.91 7.28 25 7.28C25.08 7.28 25.17 7.28 25.26 7.28C25.35 7.28 25.43 7.28 25.43 7.28C25.61 7.28 25.78 7.28 25.87 7.28C26.84 7.28 27.63 6.92 28.33 6.57C28.5 6.49 28.77 6.49 29.03 6.49C29.21 6.49 29.38 6.49 29.56 6.49L29.64 6.49C29.91 6.49 30.08 6.49 30.17 6.49C30.35 6.49 30.61 6.49 30.7 6.31C30.87 6.14 30.87 5.78 30.87 5.26C30.78 3.94 31.4 2.89 32.63 2.01C32.89 1.84 33.15 1.57 33.07 1.14C33.07 0.96 33.07 0.7 33.07 0.43C33.07 0.17 33.24 0.08 33.42 0C33.59 0 33.68 0.08 33.77 0.17C33.77 0.26 33.85 0.26 33.85 0.35C33.68 1.4 34.29 1.92 35 2.45C35.87 3.24 36.31 4.12 36.22 5.17C36.22 5.7 36.22 6.31 36.22 6.84C36.22 7.19 36.22 7.54 36.22 7.98C36.22 8.15 36.22 8.42 36.4 8.59C36.49 8.68 36.66 8.77 36.92 8.77C37.28 8.77 37.45 8.77 37.71 8.77L38.68 8.77L39.03 8.77C39.29 8.77 39.38 8.85 39.47 9.12C39.56 9.29 39.73 9.56 39.91 9.56C41.05 10 42.28 10.61 43.15 11.66C43.5 12.19 43.85 12.71 44.12 13.33C44.29 13.68 44.47 13.94 45 13.94C45.35 13.94 45.7 13.94 46.05 14.03C46.22 14.03 46.49 14.03 46.66 14.12C46.92 14.12 47.01 14.21 47.01 14.47L47.1 15.26C47.19 16.14 47.28 17.01 47.36 17.89C47.63 20.43 47.89 22.98 48.15 25.61L48.33 27.01C48.33 27.19 48.33 27.28 48.33 27.45L48.33 27.71C48.42 28.5 48.5 28.59 49.29 28.59L57.28 28.59L58.24 28.59C58.5 28.59 58.68 28.59 58.94 28.59C59.21 28.59 59.47 28.68 59.56 28.77C61.66 30.43 63.77 32.01 65.87 33.68L67.36 34.91L67.45 35L67.45 35.08C67.45 35.17 67.54 35.43 67.54 35.43C67.54 35.52 67.28 35.61 67.19 35.7C66.84 35.7 66.57 35.7 66.22 35.7L64.73 35.7L64.73 43.59L69.38 43.59C70.17 43.59 70.17 43.85 70.17 44.03C70.17 44.21 70.08 44.29 70.08 44.29C70 44.38 69.82 44.47 69.38 44.47C68.5 44.47 67.63 44.47 66.75 44.47C65.87 44.47 65 44.47 64.12 44.47C62.89 44.47 61.75 44.47 60.52 44.47C60.35 44.47 60.26 44.47 60.08 44.47C58.59 44.47 57.1 44.64 55.7 44.82L55 44.91C54.64 44.91 54.38 45 54.03 45C53.07 45.08 52.1 45.26 51.14 45.26C50.96 45.26 50.78 45.26 50.52 45.26C50.43 45.26 50.35 45.26 50.26 45.26L49.91 45.26L50 46.05C50 46.4 50.08 46.75 50.08 47.1C50.08 47.45 50 47.54 49.64 47.63C47.45 48.33 45.17 48.68 43.24 48.85C40.43 49.21 37.54 49.38 34.38 49.38L33.68 49.38ZM18.85 43.15C18.77 44.12 18.68 45.17 18.5 46.14C18.42 46.57 18.68 46.84 19.12 46.92C19.38 46.92 19.64 47.01 19.91 47.1C20.17 47.19 20.35 47.19 20.61 47.28C20.96 47.36 21.31 47.45 21.75 47.45C22.8 47.63 23.85 47.8 24.82 47.98C26.92 48.15 29.03 48.33 31.05 48.42L31.14 48.42C32.1 48.5 33.07 48.5 34.12 48.5C36.05 48.5 38.15 48.42 40.7 48.15C42.89 47.98 45.78 47.63 48.59 46.92C49.03 46.84 49.21 46.57 49.12 46.14L49.03 44.91C48.85 43.24 48.68 41.66 48.5 40C48.42 39.38 48.15 39.21 47.63 39.21C44.47 39.21 41.31 39.21 38.24 39.21L31.49 39.21C29.21 39.21 19.12 39.21 19.12 39.21C19.12 39.21 18.94 42.36 18.85 43.15ZM50.78 44.29C50.87 44.29 51.05 44.29 51.14 44.29L51.22 44.29C51.4 44.29 51.57 44.21 51.66 44.12C51.84 43.94 51.84 43.77 51.84 43.59L51.84 43.07C51.84 42.45 51.84 41.84 51.84 41.22C51.92 40.17 51.4 39.64 50.78 39.29C50.61 39.12 50.35 39.03 50.17 38.85L49.82 38.59L49.38 38.85L49.91 44.29L50.78 44.29ZM52.71 44.29L53.33 44.21C53.59 44.21 53.85 44.12 54.21 44.12L55.17 44.03C55.87 43.94 56.66 43.85 57.36 43.77C57.54 43.77 57.8 43.59 57.89 43.33C57.89 42.98 57.89 42.54 57.89 42.19L57.89 41.57L57.63 41.57C57.45 41.57 57.19 41.66 57.01 41.66C56.57 41.75 56.22 41.75 55.78 41.75C55.52 41.75 55.26 41.75 55 41.84C54.73 41.84 54.47 41.92 54.21 41.92C53.77 41.92 53.42 41.84 53.15 41.66L52.8 41.4L52.8 44.29L52.71 44.29ZM55.87 35.7C55.78 35.7 55.7 35.7 55.61 35.78L55.43 35.78L55 35.87L55.43 36.31C55.52 36.4 55.52 36.4 55.61 36.49L56.75 37.54C57.89 38.5 59.03 39.56 60.17 40.61C60.26 40.7 60.35 40.96 60.35 41.05C60.35 41.14 60.17 41.31 59.91 41.4C59.82 41.4 59.73 41.4 59.56 41.4C59.47 41.4 59.29 41.4 59.21 41.4C59.03 41.4 58.77 41.57 58.68 41.84C58.68 42.19 58.68 42.54 58.68 42.89L58.68 43.5L63.77 43.5L63.85 43.33C63.85 43.24 63.94 43.24 63.94 43.15C63.94 43.15 63.94 37.89 63.94 36.22C63.94 36.05 63.85 35.87 63.77 35.78C63.68 35.7 63.5 35.61 63.33 35.61L55.87 35.7ZM49.73 33.07C49.64 33.07 49.47 33.07 49.38 33.07C49.12 33.15 48.77 33.15 48.85 33.68C48.85 34.03 48.94 34.38 48.94 34.82C49.03 35.35 49.03 35.78 49.12 36.31C49.12 36.57 49.29 36.92 49.47 37.1C50.35 37.89 51.22 38.68 52.1 39.47C52.63 39.91 53.15 40.35 53.68 40.78C53.85 40.87 54.03 40.96 54.21 40.96C55.26 40.87 56.31 40.78 57.36 40.7L58.5 40.61L58.42 40.35L58.42 40.26L58.33 40.08L57.36 39.21C56.57 38.5 55.78 37.71 55 37.01C54.29 36.4 53.68 35.87 52.98 35.26C52.45 34.82 51.92 34.38 51.4 33.94L51.31 33.85C50.87 33.5 50.43 33.07 49.73 33.07ZM19.47 36.57C19.47 36.92 19.38 37.19 19.38 37.54C19.38 37.89 19.29 38.15 19.47 38.24C19.64 38.33 19.82 38.42 20.17 38.42L47.8 38.42C48.07 38.42 48.15 38.33 48.24 38.24C48.33 38.15 48.42 37.98 48.33 37.71C48.24 37.1 48.24 36.49 48.15 35.96L47.98 33.68C47.8 32.19 47.71 30.7 47.54 29.21C47.45 28.15 47.28 28.07 46.22 28.07L36.66 27.98C36.49 27.98 36.4 27.98 36.31 27.98C36.14 27.98 36.05 27.98 35.87 28.07C35.61 28.07 35.35 28.15 35.17 28.15C31.66 28.15 28.15 28.15 24.73 28.15L20.96 28.15L20.87 28.15C20.78 28.15 20.78 28.15 20.7 28.15C20.61 28.15 20.52 28.15 20.43 28.24C20.35 28.24 20 28.5 20 28.77C20 29.12 20 29.47 20 29.91L20 30.61L24.03 30.61C24.56 30.61 25.08 30.61 25.61 30.61C25.7 30.61 25.96 30.7 26.05 30.87C26.14 30.96 26.05 31.22 26.05 31.22C25.96 31.31 25.7 31.4 25.52 31.4C24.64 31.4 23.77 31.4 22.89 31.4C22.1 31.4 20.43 31.4 20.43 31.4C20.26 31.4 19.73 31.4 19.64 32.01C19.64 32.54 19.56 33.07 19.56 33.59L19.47 34.64C19.47 34.73 19.47 34.82 19.47 34.91L19.56 35.17L21.14 35.17L22.01 35.17C22.19 35.17 22.36 35.26 22.36 35.43C22.45 35.61 22.36 35.78 22.19 35.87C22.1 35.96 21.92 35.96 21.75 35.96C21.4 35.96 21.05 35.96 20.78 35.96L19.38 35.96L19.47 36.57ZM52.28 29.38C52.19 29.38 52.1 29.38 52.01 29.47L51.4 29.64L52.98 31.05C54.12 32.1 55.26 33.07 56.4 34.03C56.49 34.12 56.57 34.12 56.57 34.21C56.84 34.47 57.19 34.82 57.63 34.82C57.89 34.91 58.24 34.91 58.68 34.91C58.94 34.91 59.21 34.91 59.38 34.91C59.64 34.91 59.91 34.91 60.17 34.91L60.7 34.91L60.43 34.38C60.43 34.29 60.35 34.29 60.35 34.29C59.91 33.94 59.47 33.5 58.94 33.15C57.89 32.28 56.84 31.4 55.78 30.52C55 29.73 54.12 29.38 53.24 29.38C53.07 29.38 52.89 29.38 52.63 29.47L52.54 29.47L52.36 29.47C52.28 29.38 52.28 29.38 52.28 29.38ZM50.26 32.28C50.61 32.28 50.96 32.36 51.22 32.63C51.49 32.8 51.66 32.98 51.92 33.24C52.28 33.59 52.71 33.94 53.07 34.29C53.5 34.73 53.94 34.82 54.38 34.82C54.56 34.82 54.73 34.82 54.91 34.82C55.08 34.82 55.17 34.82 55.35 34.82C55.43 34.82 55.43 34.82 55.52 34.82L56.22 34.91L55.61 34.38C54.73 33.59 53.85 32.89 53.07 32.1C52.19 31.31 51.4 30.61 50.52 29.82C50.17 29.47 49.82 29.38 49.29 29.38C49.12 29.38 48.94 29.38 48.77 29.47L48.59 29.47L48.59 30.08C48.59 30.35 48.59 30.7 48.68 30.96C48.77 31.92 48.85 32.36 49.82 32.36C49.91 32.28 50.26 32.28 50.26 32.28ZM57.54 29.38C57.36 29.38 57.1 29.38 56.92 29.38L55.96 29.38L56.57 29.91C56.66 30 56.66 30 56.75 30.08C58.59 31.57 60.35 33.07 62.19 34.64C62.28 34.73 62.54 34.82 62.63 34.82C63.07 34.82 63.5 34.82 63.94 34.82L65.7 34.82L65.26 34.29C65.17 34.21 65.17 34.21 65.08 34.12C64.56 33.68 64.03 33.33 63.5 32.89C62.36 32.01 61.14 31.05 60 30.08C59.21 29.47 58.42 29.38 57.54 29.38ZM38.07 27.28C40.96 27.28 43.77 27.28 46.66 27.28C46.84 27.28 47.1 27.28 47.28 27.1C47.45 26.92 47.45 26.75 47.36 26.49C47.28 25.35 47.1 24.12 47.01 22.98L46.92 21.57L46.84 20.7C46.75 20.08 46.75 19.38 46.66 18.77C46.57 18.07 46.14 17.89 45.7 17.89C44.29 17.89 42.98 17.8 41.57 17.8C40.43 17.8 39.21 17.71 38.07 17.71C36.05 17.63 34.03 17.63 32.01 17.63C28.77 17.63 25.61 17.71 22.54 17.8C22.1 17.8 21.66 17.89 21.31 17.89C21.14 17.89 20.87 18.15 20.78 18.33C20.78 18.68 20.78 18.94 20.78 19.29L20.78 19.91L22.28 19.91C22.54 19.91 22.8 19.91 23.15 19.91C23.68 19.91 23.68 20.08 23.68 20.35C23.68 20.52 23.68 20.78 23.15 20.78L22.1 20.78C21.84 20.78 21.57 20.78 21.31 20.78C20.78 20.78 20.61 20.96 20.61 21.49C20.52 22.1 20.52 22.8 20.43 23.42C20.35 23.94 20.35 24.56 20.26 25.08C20.26 25.52 20.17 25.96 20.17 26.4L20.17 27.28L38.07 27.28ZM44.47 15.08C44.38 15.78 44.29 16.31 44.56 16.57C44.82 16.84 45.17 16.92 45.87 16.92C45.96 16.92 45.96 16.92 46.05 16.92L46.4 16.84L46.31 16.22C46.31 15.87 46.22 15.61 46.22 15.26C46.22 15.08 45.96 14.82 45.78 14.82C45.61 14.82 45.43 14.82 45.26 14.82L44.47 14.82L44.47 15.08ZM20.96 15.43C20.96 15.7 20.96 16.05 20.96 16.31C20.96 16.4 20.96 16.66 21.14 16.75C21.22 16.84 21.4 16.92 21.57 16.92C23.42 16.84 25.17 16.75 27.01 16.66C27.36 16.66 27.54 16.49 27.54 16.05C27.54 15.35 27.54 14.64 27.54 13.85C27.54 13.68 27.54 13.5 27.36 13.42C27.19 13.42 27.1 13.33 26.84 13.33C25.17 13.33 23.5 13.24 21.84 13.24L21.49 13.24C21.22 13.24 21.05 13.33 20.96 13.42C20.87 13.5 20.78 13.68 20.78 13.94C20.78 14.21 20.78 14.47 20.78 14.73L20.78 15.35L20.96 15.43ZM42.19 14.82L42.01 14.91L42.01 15.08L42.01 16.84L42.71 16.84C42.8 16.84 42.98 16.84 43.07 16.84C43.24 16.84 43.59 16.66 43.59 16.4L43.59 16.14C43.59 15.78 43.59 15.35 43.5 15C43.42 14.73 43.15 14.73 42.71 14.73C42.63 14.73 42.45 14.73 42.36 14.73L42.28 14.73L42.19 14.82ZM40.35 16.75C40.43 16.75 40.43 16.75 40.52 16.75L40.61 16.75C40.78 16.75 40.87 16.66 40.96 16.57C41.05 16.49 41.14 16.31 41.14 16.14C41.14 16.05 41.14 15.87 41.14 15.78C41.14 15.61 41.14 15.35 41.14 15.17C41.14 15 40.96 14.73 40.78 14.64C40.52 14.56 40.35 14.56 40.26 14.56C39.56 14.56 39.56 15.26 39.56 15.52L39.56 15.78C39.56 15.87 39.56 15.96 39.56 16.05C39.56 16.31 39.56 16.49 39.73 16.66C39.82 16.75 40 16.84 40.26 16.84C40.17 16.84 40.35 16.75 40.35 16.75ZM35.87 16.66C36.57 16.66 37.28 16.66 37.98 16.66C38.15 16.66 38.42 16.66 38.5 16.49C38.68 16.31 38.68 16.14 38.68 15.96C38.68 15.26 38.68 14.56 38.68 13.94C38.68 13.77 38.59 13.59 38.5 13.5C38.42 13.42 38.24 13.33 38.07 13.33C37.36 13.33 36.75 13.33 36.05 13.33C35.43 13.33 34.21 13.33 34.21 13.33C34.03 13.33 33.85 13.42 33.77 13.5C33.59 13.68 33.59 13.85 33.59 14.03C33.59 14.47 33.59 14.82 33.59 15.26C33.59 15.61 33.42 15.61 33.24 15.61C32.8 15.61 32.28 15.61 31.84 15.61C31.31 15.61 30.87 15.61 30.35 15.61C30.17 15.61 30.08 15.61 30.08 15.26C30.08 15.08 30.08 14.91 30.08 14.73C30.08 14.64 30.08 14.47 30.08 14.38C30.08 14.21 30.08 14.12 30.08 14.03C30.08 13.77 30.08 13.59 30 13.5C29.73 13.33 29.56 13.33 29.12 13.33L28.94 13.33C28.68 13.33 28.5 13.42 28.42 13.5C28.24 13.68 28.24 13.85 28.24 14.03C28.24 14.64 28.24 15.35 28.24 15.96C28.24 16.14 28.24 16.31 28.42 16.49C28.59 16.66 28.77 16.66 28.94 16.66C29.64 16.66 30.35 16.66 31.05 16.66L33.15 16.66L33.42 16.75L35.87 16.66ZM30.87 14.73L32.71 14.73L32.71 14.47L32.71 14.29C32.71 14.12 32.71 13.94 32.71 13.77C32.71 13.59 32.45 13.33 32.28 13.33C32.1 13.33 31.92 13.33 31.75 13.33L30.87 13.33L30.87 14.73ZM39.47 11.4C39.47 12.01 39.47 12.63 39.47 13.24C39.47 13.42 39.73 13.68 40 13.77C40.78 13.85 41.57 13.85 42.36 13.94L43.33 14.03L43.24 13.77C42.98 12.36 40.87 10.87 39.73 10.78L39.47 10.78L39.47 11.4ZM36.92 12.54C37.28 12.54 37.63 12.54 37.98 12.54C38.15 12.54 38.42 12.54 38.5 12.36C38.59 12.28 38.68 12.1 38.68 11.84C38.68 11.31 38.68 10.87 38.68 10.43C38.68 10.26 38.68 10 38.5 9.82C38.33 9.64 38.15 9.64 37.89 9.64C36.14 9.64 34.29 9.64 32.54 9.64L28.94 9.64C28.68 9.64 28.5 9.64 28.24 9.73C27.1 10.17 25.96 10.61 24.82 11.05C24.38 11.22 23.85 11.4 23.42 11.66L22.54 12.01L22.63 12.36L22.8 12.45L22.89 12.45C22.98 12.45 23.07 12.45 23.15 12.45L36.05 12.45L36.92 12.54ZM24.82 8.24L24.82 10.26L27.54 9.29C27.8 9.21 28.07 9.12 28.15 8.85C28.24 8.59 28.15 8.42 28.07 8.24L27.98 8.07L24.82 8.24ZM29.91 7.36C29.73 7.36 29.56 7.36 29.38 7.36C29.21 7.36 28.85 7.63 28.85 7.89C28.85 8.77 29.12 8.77 29.21 8.85C29.38 8.85 29.64 8.94 29.82 8.94C30.08 8.94 30.26 8.94 30.52 8.85C30.78 8.77 30.78 8.5 30.78 8.15C30.78 8.07 30.78 7.98 30.78 7.89C30.78 7.8 30.78 7.71 30.78 7.71L30.7 7.36L29.91 7.36ZM31.66 8.85L33.15 8.85C33.77 8.85 34.29 8.85 34.91 8.85C35.08 8.85 35.35 8.68 35.35 8.5C35.43 8.15 35.43 7.89 35.35 7.63C35.17 7.45 34.91 7.36 34.56 7.36L31.66 7.36L31.66 8.85ZM32.45 5.08C32.19 5.08 31.92 5.08 31.75 5.26C31.57 5.43 31.66 5.7 31.66 6.05C31.66 6.14 31.66 6.22 31.66 6.22L31.75 6.49L35.35 6.49L35.35 5.08L32.45 5.08ZM33.42 2.71C32.89 2.71 32.28 3.33 32.19 3.94L32.1 4.21L35 4.21L34.91 3.85C34.64 3.24 34.03 2.71 33.42 2.71Z" fill="#1A1A1A" fill-opacity="1.000000" fill-rule="evenodd"/>
</svg>
