<svg width="32.862305" height="51.929688" viewBox="0 0 32.8623 51.9297" fill="none" xmlns="http://www.w3.org/2000/svg" xmlns:xlink="http://www.w3.org/1999/xlink">
	<desc>
			Created with Pixso.
	</desc>
	<defs/>
	<path id="Vector" d="M0.4 51.92C0.17 51.92 0 51.75 0 51.52L0 48.73C0 48.5 0.17 48.32 0.4 48.32L3.88 48.32L3.88 37.02L3.01 37.02C2.78 37.02 2.6 36.84 2.6 36.61L2.6 33.82C2.6 33.6 2.78 33.42 3.01 33.42L4.81 33.42L4.81 26.96L3.94 26.96C3.71 26.96 3.53 26.78 3.53 26.55L3.53 23.76C3.53 23.53 3.71 23.35 3.94 23.35L6.84 23.35L6.84 11.74L5.41 11.74C5.18 11.74 5 11.56 5 11.33L5 8.54C5 8.31 5.18 8.13 5.41 8.13L7.19 8.13C8.4 4.34 11.89 1.67 15.86 1.5L15.86 0.4C15.86 0.17 16.04 0 16.26 0C16.49 0 16.67 0.17 16.67 0.4L16.67 1.5C20.65 1.66 24.14 4.33 25.35 8.13L27.13 8.13C27.36 8.13 27.53 8.31 27.53 8.54L27.53 11.33C27.53 11.56 27.36 11.74 27.13 11.74L25.69 11.74L25.69 23.35L28.6 23.35C28.82 23.35 29 23.53 29 23.76L29 26.55C29 26.77 28.82 26.96 28.6 26.96L27.72 26.96L27.72 33.42L29.52 33.42C29.75 33.42 29.93 33.6 29.93 33.82L29.93 36.61C29.93 36.84 29.75 37.02 29.52 37.02L28.65 37.02L28.65 48.32L32.45 48.32C32.68 48.32 32.86 48.5 32.86 48.73L32.86 51.52C32.86 51.74 32.68 51.92 32.45 51.92L0.4 51.92ZM32.05 51.11L32.05 49.13L0.81 49.13L0.81 51.11L32.05 51.11ZM27.84 48.32L27.84 37.02L26 37.02L26 48.32L27.84 48.32ZM25.19 48.32L25.19 37.02L7.35 37.02L7.35 48.32L12.39 48.32L12.39 43.72C12.39 41.58 14.13 39.84 16.27 39.84C18.41 39.84 20.15 41.58 20.15 43.72L20.15 48.32L25.19 48.32ZM19.33 48.32L19.33 43.72C19.33 42.03 17.96 40.65 16.26 40.65C14.57 40.65 13.2 42.03 13.2 43.72L13.2 48.32L19.33 48.32ZM6.54 48.32L6.54 37.02L4.69 37.02L4.69 48.32L6.54 48.32ZM29.12 36.21L29.12 34.23L26 34.23L26 36.21L29.12 36.21ZM25.19 36.21L25.19 34.23L24.72 34.23L24.72 36.21L25.19 36.21ZM23.91 36.21L23.91 34.23L8.62 34.23L8.62 36.21L23.91 36.21ZM7.81 36.21L7.81 34.23L7.35 34.23L7.35 36.21L7.81 36.21ZM6.54 36.21L6.54 34.23L3.41 34.23L3.41 36.21L6.54 36.21ZM26.91 33.42L26.91 26.96L25.07 26.96L25.07 33.42L26.91 33.42ZM24.26 33.42L24.26 26.96L8.27 26.96L8.27 33.42L13.6 33.42L13.6 30.56C13.6 29.09 14.8 27.89 16.27 27.89C17.74 27.89 18.94 29.09 18.94 30.56L18.94 33.42L24.26 33.42ZM18.12 33.42L18.12 30.56C18.12 29.54 17.29 28.7 16.26 28.7C15.24 28.7 14.41 29.54 14.41 30.56L14.41 33.42L18.12 33.42ZM7.46 33.42L7.46 26.96L5.62 26.96L5.62 33.42L7.46 33.42ZM28.19 26.15L28.19 24.17L25.07 24.17L25.07 26.15L28.19 26.15ZM24.26 26.15L24.26 24.17L23.79 24.17L23.79 26.15L24.26 26.15ZM22.98 26.15L22.98 24.17L9.55 24.17L9.55 26.15L22.98 26.15ZM8.74 26.15L8.74 24.17L8.27 24.17L8.27 26.15L8.74 26.15ZM7.46 26.15L7.46 24.17L4.34 24.17L4.34 26.15L7.46 26.15ZM24.88 23.36L24.88 11.74L7.65 11.74L7.65 23.36L10.33 23.36L10.33 21.31C10.33 20.04 11.37 19.01 12.64 19.01C13.91 19.01 14.94 20.04 14.94 21.31L14.94 23.36L17.59 23.36L17.59 21.31C17.59 20.04 18.62 19.01 19.89 19.01C21.16 19.01 22.19 20.04 22.19 21.31L22.19 23.36L24.88 23.36ZM21.39 23.36L21.39 21.31C21.39 20.49 20.72 19.82 19.9 19.82C19.08 19.82 18.41 20.49 18.41 21.31L18.41 23.36L21.39 23.36ZM14.14 23.36L14.14 21.31C14.14 20.49 13.47 19.82 12.65 19.82C11.82 19.82 11.15 20.49 11.15 21.31L11.15 23.36L14.14 23.36ZM26.72 10.92L26.72 8.95L5.81 8.95L5.81 10.92L26.72 10.92ZM24.49 8.13C24.01 6.78 23.2 5.55 22.12 4.58C20.74 4.64 19.66 5.78 19.66 7.16C19.66 7.39 19.48 7.57 19.26 7.57C19.03 7.57 18.85 7.39 18.85 7.16C18.85 5.73 17.69 4.57 16.26 4.57C14.84 4.57 13.68 5.73 13.68 7.16C13.68 7.39 13.5 7.57 13.27 7.57C13.04 7.57 12.86 7.39 12.86 7.16C12.86 5.78 11.79 4.65 10.41 4.58C9.34 5.55 8.52 6.78 8.04 8.13L24.49 8.13ZM16.26 3.76C17.51 3.76 18.66 4.44 19.26 5.54C19.68 4.76 20.42 4.16 21.28 3.9C19.8 2.85 18.07 2.3 16.27 2.3C14.47 2.3 12.73 2.85 11.25 3.9C12.1 4.16 12.84 4.76 13.27 5.54C13.87 4.44 15.01 3.76 16.26 3.76Z" fill="#000000" fill-opacity="1.000000" fill-rule="nonzero"/>
</svg>
