<svg width="46.608887" height="46.493164" viewBox="0 0 46.6089 46.4932" fill="none" xmlns="http://www.w3.org/2000/svg" xmlns:xlink="http://www.w3.org/1999/xlink">
	<desc>
			Created with Pixso.
	</desc>
	<defs/>
	<path id="Vector" d="M0.4 46.2C0.17 46.2 0 46.02 0 45.79C0 45.56 0.17 45.39 0.4 45.39L2.55 45.39L2.55 24.2L0.4 24.2C0.17 24.2 0 24.03 0 23.79L0 15.84C0 15.61 0.17 15.43 0.4 15.43L1.79 15.43L1.79 11.72C1.79 11.49 1.97 11.31 2.2 11.31L3.36 11.31L3.59 8.7L3.59 8.64C3.3 8.47 2.2 6.9 3.77 5.22C4.7 4.29 5.45 3.3 6.03 2.32L6.03 0.4C6.03 0.17 6.21 0 6.44 0C6.67 0 6.84 0.17 6.84 0.4L6.84 2.32C7.42 3.3 8.18 4.29 9.11 5.28C10.68 6.96 9.63 8.47 9.4 8.82L9.4 8.88L9.63 11.49L10.79 11.49C11.02 11.49 11.2 11.66 11.2 11.89L11.2 15.61L35.29 15.61L35.29 11.89C35.29 11.66 35.46 11.49 35.69 11.49L36.85 11.49L37.08 8.88L37.08 8.82C36.85 8.53 35.75 6.96 37.38 5.28C38.3 4.29 39 3.36 39.64 2.32L39.64 0.4C39.64 0.17 39.81 0 40.05 0C40.28 0 40.45 0.17 40.45 0.4L40.45 2.32C41.03 3.3 41.79 4.29 42.72 5.28C44.28 6.96 43.24 8.47 43.01 8.82L43.01 8.88L43.24 11.49L44.4 11.49C44.63 11.49 44.8 11.66 44.8 11.89L44.8 15.61L46.2 15.61C46.43 15.61 46.6 15.78 46.6 16.02L46.6 24.03C46.6 24.26 46.43 24.43 46.2 24.43L43.99 24.43L43.99 45.68L46.2 45.68C46.43 45.68 46.6 45.85 46.6 46.08C46.6 46.31 46.43 46.49 46.2 46.49L0.4 46.49L0.4 46.2ZM36.68 45.44L42.89 45.44L42.89 24.2L36.68 24.2L36.68 45.44ZM30.29 45.44L35.87 45.44L35.87 24.2L30.29 24.2L30.29 45.44ZM23.1 35.11C25.19 35.11 26.87 36.79 26.87 38.88L26.87 45.44L29.54 45.44L29.54 24.2L16.65 24.2L16.65 45.44L19.32 45.44L19.32 38.88C19.32 36.79 21.01 35.11 23.1 35.11ZM23.1 35.87C21.41 35.87 20.08 37.2 20.08 38.88L20.08 45.44L26.11 45.44L26.11 38.88C26.11 37.2 24.78 35.87 23.1 35.87ZM10.33 45.44L15.84 45.44L15.84 24.2L10.33 24.2L10.33 45.44ZM3.3 45.44L9.57 45.44L9.57 24.2L3.3 24.2L3.3 45.44ZM34.07 23.44L45.39 23.44L45.39 16.25L34.07 16.25L34.07 23.44ZM12.88 23.44L33.37 23.44L33.37 16.25L12.88 16.25L12.88 19.44L27.97 19.44C28.2 19.44 28.38 19.61 28.38 19.85C28.38 20.08 28.2 20.25 27.97 20.25L12.88 20.25L12.88 23.44ZM0.75 23.44L12.07 23.44L12.07 16.25L0.75 16.25L0.75 23.44ZM35.87 15.49L43.59 15.49L43.59 12.18L35.87 12.18L35.87 15.49ZM2.55 15.49L10.27 15.49L10.27 12.18L2.55 12.18L2.55 15.49ZM39.75 10.21C39.99 10.21 40.16 10.38 40.16 10.62L40.16 11.37L42.13 11.37L41.96 8.99L37.72 8.99L37.55 11.37L39.52 11.37L39.52 10.62C39.41 10.38 39.58 10.21 39.75 10.21ZM6.44 10.27C6.67 10.27 6.84 10.44 6.84 10.68L6.84 11.43L8.82 11.43L8.64 9.05L4.41 9.05L4.23 11.43L6.21 11.43L6.21 10.68C6.03 10.44 6.21 10.27 6.44 10.27ZM39.64 3.25C39.12 4.12 38.42 4.93 37.67 5.74C36.62 6.84 37.14 7.83 37.43 8.24L37.49 8.3L42.13 8.3L42.19 8.24C42.48 7.89 43.01 6.84 41.96 5.74C41.15 4.93 40.51 4.12 39.99 3.25L39.87 3.07L39.64 3.25ZM6.32 3.25C5.8 4.12 5.1 4.93 4.35 5.74C3.3 6.84 3.83 7.83 4.12 8.24L4.17 8.3L8.76 8.3L8.82 8.24C9.11 7.89 9.63 6.84 8.59 5.74C7.77 4.93 7.13 4.12 6.61 3.25L6.5 3.07L6.32 3.25Z" fill="#1A1A1A" fill-opacity="1.000000" fill-rule="nonzero"/>
</svg>
