<svg width="51.216797" height="46.280762" viewBox="0 0 51.2168 46.2808" fill="none" xmlns="http://www.w3.org/2000/svg" xmlns:xlink="http://www.w3.org/1999/xlink">
	<desc>
			Created with Pixso.
	</desc>
	<defs/>
	<path id="Vector" d="M25.7 0C22.81 0 19.99 0.32 17.24 0.89C17.11 0.89 16.92 1.15 16.92 1.28L16.92 2.62C15.38 3.01 13.91 3.39 12.43 3.97C11.79 3.97 11.34 3.39 11.34 2.75C11.34 2.5 11.21 2.37 10.96 2.37C10.7 2.37 10.57 2.5 10.57 2.75C10.57 3.71 11.28 4.48 12.17 4.67L12.17 14.29L11.41 14.29C11.41 9.48 8.84 5.25 4.67 3.01C5 2.94 5.38 2.88 5.76 2.88C7.3 2.88 8.71 3.78 9.35 5.12C9.42 5.25 9.61 5.38 9.74 5.38L9.87 5.38C10 5.32 10.19 5.06 10 4.8C9.23 3.14 7.5 2.11 5.7 2.11C5.25 2.11 4.74 2.17 4.29 2.37C5.57 1.66 6.98 1.41 8.52 1.66C8.78 1.66 8.91 1.6 8.97 1.34C9.03 1.08 8.91 0.96 8.65 0.89C6.6 0.57 4.42 1.15 2.82 2.43C2.75 2.43 2.75 2.5 2.75 2.5C2.17 2.56 1.66 2.88 1.28 3.26C0.64 3.91 0.25 4.8 0.25 5.76C0.25 6.02 0.38 6.15 0.64 6.15C0.89 6.15 1.02 6.02 1.02 5.76C1.02 5.06 1.34 4.35 1.79 3.84C2.05 3.58 2.24 3.52 2.56 3.39L2.62 3.39C2.37 3.84 2.17 4.48 2.17 5.06C2.17 6.34 2.88 7.62 4.03 8.26C4.1 8.26 4.16 8.33 4.16 8.33C4.29 8.33 4.42 8.26 4.48 8.07C4.55 7.88 4.48 7.69 4.35 7.5C3.46 7.05 2.88 6.08 2.88 5.06C2.88 4.48 3.01 4.03 3.26 3.65C5.64 6.15 7.11 9.42 7.24 12.88C6.6 12.43 6.15 11.79 5.7 11.15C5.7 11.15 5.7 11.08 5.64 11.08L5.57 10.89L5.19 10.89L5.12 10.96L5.06 11.02C4.42 12.17 4.1 13.46 4.1 14.74C4.1 17.69 5.83 20.25 8.33 21.53L0.44 21.53C0.19 21.53 0.06 21.66 0.06 21.92C0.06 22.17 0.19 22.3 0.44 22.3L50.83 22.3C51.08 22.3 51.21 22.17 51.21 21.92C51.15 21.66 50.96 21.53 50.76 21.53L42.94 21.53C45.44 20.25 47.17 17.69 47.17 14.74C47.17 13.52 46.85 12.24 46.28 11.21C46.28 11.15 46.21 10.96 46.15 10.96C46.02 10.89 45.89 10.89 45.76 10.96L45.7 10.96L45.64 11.02C45.25 11.73 44.67 12.3 44.1 12.88C44.22 9.48 45.57 6.15 48.07 3.71C48.33 4.1 48.46 4.67 48.46 5.12C48.46 6.15 47.88 7.11 47.05 7.62C46.92 7.69 46.79 7.94 46.92 8.2C46.98 8.33 47.17 8.46 47.24 8.46C47.3 8.46 47.37 8.46 47.37 8.39C48.52 7.75 49.22 6.53 49.22 5.19C49.22 4.55 49.1 3.97 48.78 3.52L48.84 3.52L49.55 3.97C49.99 4.42 50.31 5.19 50.31 5.89C50.31 6.15 50.44 6.28 50.7 6.28C50.96 6.28 51.08 6.15 51.08 5.89C51.08 4.93 50.7 4.03 50.06 3.39C49.67 3.01 49.16 2.69 48.65 2.5C48.65 2.43 48.58 2.43 48.58 2.43C46.98 1.15 44.8 0.51 42.75 0.89C42.49 0.89 42.37 1.15 42.43 1.34C42.43 1.6 42.69 1.73 42.88 1.66C44.29 1.41 45.83 1.66 47.11 2.37C46.66 2.24 46.15 2.11 45.7 2.11C43.84 2.11 42.17 3.14 41.4 4.8C41.34 4.93 41.4 5.19 41.53 5.38L41.66 5.38C41.79 5.38 41.98 5.32 42.05 5.12C42.69 3.78 44.1 2.88 45.64 2.88C46.02 2.88 46.34 2.94 46.72 3.01C42.69 5.38 40.06 9.61 40.06 14.42L39.29 14.42L39.29 4.8C40.19 4.67 40.89 3.84 40.89 2.82C40.89 2.56 40.76 2.43 40.51 2.43C40.25 2.43 40.12 2.56 40.12 2.82C40.12 3.46 39.67 3.91 39.03 4.03C37.62 3.46 36.08 3.01 34.55 2.69L34.55 1.28C34.55 1.15 34.42 0.96 34.23 0.89C31.34 0.32 28.52 0 25.7 0ZM25.57 0.7C28.26 0.7 30.96 0.96 33.58 1.53L33.58 2.3C30.96 1.73 28.33 1.41 25.57 1.41C22.81 1.41 20.19 1.73 17.56 2.3L17.56 1.53C20.25 0.96 22.88 0.7 25.57 0.7ZM25.57 2.37C29.99 2.37 34.29 3.14 38.39 4.67L38.39 14.35L36.02 14.35L36.02 9.55C36.02 8.2 34.99 7.17 33.65 7.17C32.3 7.17 31.28 8.2 31.28 9.55L31.28 14.35L28.9 14.35L28.9 7.94C28.9 6.21 27.49 4.74 25.7 4.74C23.97 4.74 22.49 6.15 22.49 7.94L22.49 14.35L20.12 14.35L20.12 9.55C20.12 8.2 19.1 7.17 17.75 7.17C16.4 7.17 15.38 8.2 15.38 9.55L15.38 14.35L12.82 14.35L12.82 4.67C16.85 3.14 21.21 2.37 25.57 2.37ZM4.74 4.1C5.06 4.23 5.38 4.48 5.7 4.74L5.19 4.74C5.06 4.48 4.87 4.23 4.74 4.1ZM46.53 4.1C46.4 4.23 46.21 4.48 46.08 4.74L45.64 4.74C45.89 4.48 46.21 4.23 46.53 4.1ZM5.76 5.51L6.66 5.51C7.11 5.96 7.62 6.53 8.07 7.11L6.66 7.11C6.41 6.6 6.08 6.02 5.76 5.51ZM25.57 5.51C26.92 5.51 27.94 6.53 27.94 7.88L27.94 14.29L23.14 14.29L23.14 7.88C23.2 6.6 24.23 5.51 25.57 5.51ZM44.61 5.51L45.51 5.51C45.19 5.96 44.87 6.53 44.61 7.11L43.2 7.11C43.65 6.6 44.16 6.02 44.61 5.51ZM6.98 7.94L8.65 7.94C8.97 8.39 9.23 8.97 9.42 9.55L7.5 9.55C7.37 8.97 7.17 8.52 6.98 7.94ZM17.62 7.94C18.52 7.94 19.23 8.65 19.23 9.55L19.23 14.35L16.02 14.35L16.02 9.55C16.02 8.65 16.73 7.94 17.62 7.94ZM33.58 7.94C34.48 7.94 35.19 8.65 35.19 9.55L35.19 14.35L31.98 14.35L31.98 9.55C31.98 8.65 32.69 7.94 33.58 7.94ZM42.62 7.94L44.29 7.94C44.03 8.52 43.9 8.97 43.71 9.55L41.79 9.55C42.05 8.97 42.3 8.39 42.62 7.94ZM7.69 10.32L9.74 10.32C9.87 10.76 10.06 11.34 10.12 11.92L7.88 11.92C7.94 11.41 7.82 10.89 7.69 10.32ZM41.53 10.32L43.58 10.32C43.52 10.89 43.33 11.34 43.33 11.92L41.08 11.92C41.21 11.41 41.34 10.83 41.53 10.32ZM5.38 12.11C5.96 12.82 6.6 13.46 7.3 13.97L7.43 14.1C8.39 14.67 9.48 15.06 10.64 15.12L13.52 15.12L13.52 16.02C12.62 16.15 11.92 16.98 11.92 17.94C11.92 19.03 12.82 19.93 13.91 19.93C14.99 19.93 15.89 19.03 15.89 17.94C15.89 16.98 15.19 16.21 14.29 16.02L14.29 15.12L20.7 15.12L20.7 16.02C19.8 16.15 19.1 16.98 19.1 17.94C19.1 19.03 19.99 19.93 21.08 19.93C22.17 19.93 23.07 19.03 23.07 17.94C23.07 16.98 22.37 16.21 21.47 16.02L21.47 15.12L29.48 15.12L29.48 16.02C28.58 16.15 27.88 16.98 27.88 17.94C27.88 19.03 28.78 19.93 29.87 19.93C30.96 19.93 31.85 19.03 31.85 17.94C31.85 16.98 31.15 16.21 30.25 16.02L30.25 15.12L36.66 15.12L36.66 16.02C35.76 16.15 35.06 16.98 35.06 17.94C35.06 19.03 35.96 19.93 37.05 19.93C38.14 19.93 39.03 19.03 39.03 17.94C39.03 16.98 38.33 16.21 37.43 16.02L37.43 15.12L40.38 15.12C42.56 14.99 44.48 13.84 45.76 12.17C46.08 12.94 46.34 13.91 46.34 14.8C46.34 18.58 43.33 21.6 39.55 21.6L11.6 21.6L11.6 21.53C7.82 21.53 4.8 18.52 4.8 14.74C4.8 13.84 4.93 12.88 5.38 12.11ZM8.01 12.75L10.32 12.75C10.38 13.2 10.38 13.78 10.38 14.29C9.48 14.23 8.71 13.91 8.01 13.52L8.01 12.75ZM40.96 12.75L43.33 12.75L43.33 13.46C42.62 13.84 41.79 14.16 40.96 14.23C40.89 13.78 40.89 13.2 40.96 12.75ZM13.97 16.73C14.61 16.73 15.19 17.3 15.19 17.94C15.19 18.58 14.61 19.16 13.97 19.16C13.33 19.16 12.75 18.58 12.75 17.94C12.75 17.3 13.33 16.73 13.97 16.73ZM21.21 16.73C21.85 16.73 22.43 17.3 22.43 17.94C22.43 18.58 21.85 19.16 21.21 19.16C20.57 19.16 19.99 18.58 19.99 17.94C19.99 17.3 20.57 16.73 21.21 16.73ZM29.99 16.73C30.64 16.73 31.21 17.3 31.21 17.94C31.21 18.58 30.64 19.16 29.99 19.16C29.35 19.16 28.78 18.58 28.78 17.94C28.78 17.3 29.35 16.73 29.99 16.73ZM37.17 16.73C37.81 16.73 38.39 17.3 38.39 17.94C38.39 18.58 37.81 19.16 37.17 19.16C36.53 19.16 36.02 18.58 36.02 17.94C36.02 17.3 36.53 16.73 37.17 16.73ZM0.38 25.51C0.12 25.51 0 25.64 0 25.89C0 26.15 0.25 26.28 0.38 26.28L2.75 26.28C3.01 26.28 3.14 26.15 3.14 25.89C3.14 25.64 3.01 25.51 2.75 25.51L0.38 25.51ZM5.19 25.51C4.93 25.51 4.8 25.64 4.8 25.89C4.8 26.15 4.93 26.28 5.19 26.28L23.58 26.28C23.84 26.28 23.97 26.15 23.97 25.89C23.97 25.64 23.84 25.51 23.58 25.51L5.19 25.51ZM26.02 25.51C25.76 25.51 25.64 25.64 25.64 25.89C25.64 26.15 25.76 26.28 26.02 26.28L29.99 26.28C30.25 26.28 30.38 26.15 30.38 25.89C30.38 25.64 30.25 25.51 29.99 25.51L26.02 25.51ZM32.37 25.51C32.11 25.51 31.98 25.64 31.98 25.89C31.98 26.15 32.11 26.28 32.37 26.28L50.76 26.28C51.02 26.28 51.15 26.15 51.15 25.89C51.15 25.64 51.02 25.51 50.76 25.51L32.37 25.51ZM0.38 29.55C0.12 29.55 0 29.67 0 29.93C0 30.19 0.25 30.31 0.38 30.31L8.39 30.31C8.65 30.31 8.78 30.19 8.78 29.93C8.78 29.67 8.65 29.55 8.39 29.55L0.38 29.55ZM10.76 29.55C10.64 29.55 10.38 29.67 10.38 29.93C10.38 30.19 10.51 30.31 10.76 30.31L42.75 30.31C43.01 30.31 43.14 30.19 43.14 29.93C43.14 29.67 43.01 29.55 42.75 29.55L10.76 29.55ZM45.19 29.55C44.93 29.55 44.8 29.67 44.8 29.93C44.8 30.19 44.93 30.31 45.19 30.31L50.76 30.31C51.02 30.31 51.15 30.19 51.15 29.93C51.15 29.67 51.02 29.55 50.76 29.55L45.19 29.55ZM0.38 33.52C0.12 33.52 0 33.65 0 33.9C0 34.16 0.25 34.29 0.38 34.29L4.35 34.29C4.61 34.29 4.74 34.16 4.74 33.9C4.74 33.65 4.61 33.52 4.35 33.52L0.38 33.52ZM6.79 33.52C6.53 33.52 6.41 33.65 6.41 33.9C6.41 34.16 6.53 34.29 6.79 34.29L26.79 34.29C27.05 34.29 27.17 34.16 27.17 33.9C27.17 33.65 27.05 33.52 26.79 33.52L6.79 33.52ZM29.23 33.52C28.97 33.52 28.84 33.65 28.84 33.9C28.84 34.16 28.97 34.29 29.23 34.29L36.4 34.29C36.66 34.29 36.79 34.16 36.79 33.9C36.79 33.65 36.66 33.52 36.4 33.52L29.23 33.52ZM38.78 33.52C38.52 33.52 38.39 33.65 38.39 33.9C38.39 34.16 38.52 34.29 38.78 34.29L50.7 34.29C50.96 34.29 51.08 34.16 51.08 33.9C51.08 33.65 51.02 33.52 50.76 33.52L38.78 33.52ZM0.38 37.56C0.12 37.56 0 37.69 0 37.94C0 38.2 0.25 38.33 0.38 38.33L13.97 38.33C14.23 38.33 14.35 38.2 14.35 37.94C14.35 37.69 14.23 37.56 13.97 37.56L0.38 37.56ZM16.4 37.56C16.15 37.56 16.02 37.69 16.02 37.94C16.02 38.2 16.28 38.33 16.4 38.33L20.38 38.33C20.64 38.33 20.76 38.2 20.76 37.94C20.76 37.69 20.64 37.56 20.38 37.56L16.4 37.56ZM22.81 37.56C22.56 37.56 22.43 37.69 22.43 37.94C22.43 38.2 22.56 38.33 22.81 38.33L41.21 38.33C41.47 38.33 41.6 38.2 41.6 37.94C41.6 37.69 41.47 37.56 41.21 37.56L22.81 37.56ZM43.58 37.56C43.33 37.56 43.2 37.69 43.2 37.94C43.2 38.2 43.33 38.33 43.58 38.33L49.16 38.33C49.42 38.33 49.55 38.2 49.55 37.94C49.55 37.69 49.42 37.56 49.16 37.56L43.58 37.56ZM0.38 41.53C0.12 41.53 0 41.66 0 41.92C0 42.17 0.12 42.3 0.38 42.3L4.35 42.3C4.61 42.3 4.74 42.17 4.74 41.92C4.74 41.66 4.61 41.53 4.35 41.53L0.38 41.53ZM6.79 41.53C6.53 41.53 6.41 41.66 6.41 41.92C6.41 42.17 6.53 42.3 6.79 42.3L10.76 42.3C11.02 42.3 11.15 42.17 11.15 41.92C11.15 41.66 11.02 41.53 10.76 41.53L6.79 41.53ZM13.2 41.53C12.94 41.53 12.82 41.66 12.82 41.92C12.82 42.17 12.94 42.3 13.2 42.3L31.6 42.3C31.85 42.3 31.98 42.17 31.98 41.92C31.98 41.66 31.85 41.53 31.6 41.53L13.2 41.53ZM33.97 41.53C33.71 41.53 33.58 41.66 33.58 41.92C33.58 42.17 33.71 42.3 33.97 42.3L50.76 42.3C51.02 42.3 51.15 42.17 51.15 41.92C51.15 41.66 51.02 41.53 50.76 41.53L33.97 41.53ZM1.98 45.51C1.73 45.51 1.6 45.64 1.6 45.89C1.6 46.15 1.73 46.28 1.98 46.28L7.56 46.28C7.82 46.28 7.94 46.15 7.94 45.89C7.94 45.64 7.82 45.51 7.56 45.51L1.98 45.51ZM10 45.51C9.74 45.51 9.61 45.64 9.61 45.89C9.61 46.15 9.74 46.28 10 46.28L28.39 46.28C28.65 46.28 28.78 46.15 28.78 45.89C28.78 45.64 28.65 45.51 28.39 45.51L10 45.51ZM30.76 45.51C30.51 45.51 30.38 45.64 30.38 45.89C30.38 46.15 30.51 46.28 30.76 46.28L34.74 46.28C34.99 46.28 35.12 46.15 35.12 45.89C35.12 45.64 34.99 45.51 34.74 45.51L30.76 45.51ZM37.17 45.51C36.92 45.51 36.79 45.64 36.79 45.89C36.79 46.15 36.92 46.28 37.17 46.28L50.76 46.28C51.02 46.28 51.15 46.15 51.15 45.89C51.15 45.64 51.02 45.51 50.76 45.51L37.17 45.51Z" fill="#1A1A1A" fill-opacity="1.000000" fill-rule="nonzero"/>
</svg>
