<svg width="59.000000" height="46.000000" viewBox="0 0 59 46" fill="none" xmlns="http://www.w3.org/2000/svg" xmlns:xlink="http://www.w3.org/1999/xlink">
	<desc>
			Created with Pixso.
	</desc>
	<defs/>
	<path id="Vector" d="M0.34 46C0.11 46 0 45.88 0 45.65C0 45.42 0.11 45.3 0.34 45.3L2.81 45.3L2.81 25.25L1.32 25.25C1.14 25.25 1.03 25.19 0.97 25.02L0 22.19C0 22.07 0 21.9 0.05 21.84C0.17 21.72 0.22 21.67 0.34 21.67L2.81 21.67L2.81 17.68L2.24 17.68C2.01 17.68 1.89 17.56 1.89 17.33L1.89 14.5C1.89 14.27 2.01 14.15 2.24 14.15L15.97 14.15L15.97 10.74C15.97 10.51 16.08 10.4 16.31 10.4L16.89 10.4L16.89 3.64C16.89 2.83 17.4 2.13 18.21 1.96L18.32 1.96L18.32 0.34C18.32 0.11 18.44 0 18.67 0C18.9 0 19.01 0.11 19.01 0.34L19.01 1.96L19.13 1.96C19.87 2.13 20.45 2.83 20.45 3.64L20.45 7.51L38.49 7.51L38.49 3.64C38.49 2.83 39 2.13 39.81 1.96L39.92 1.96L39.92 0.34C39.86 0.11 39.98 0 40.21 0C40.44 0 40.55 0.11 40.55 0.34L40.55 1.96L40.67 1.96C41.42 2.13 41.99 2.83 41.99 3.64L41.99 10.4L42.56 10.4C42.79 10.4 42.91 10.51 42.91 10.74L42.91 14.15L56.64 14.15C56.87 14.15 56.98 14.27 56.98 14.5L56.98 17.33C56.98 17.56 56.87 17.68 56.64 17.68L56.07 17.68L56.07 21.67L58.54 21.67C58.65 21.67 58.77 21.72 58.82 21.84L58.88 21.9C58.94 22.01 59 22.07 58.94 22.19L58.02 25.02C57.96 25.13 57.79 25.25 57.67 25.25L56.18 25.25L56.18 45.3L58.65 45.3C58.88 45.3 59 45.42 59 45.65C59 45.88 58.88 46 58.65 46L0.34 46ZM27.11 27.79C24.7 29.29 23.2 31.95 23.2 34.84L23.2 45.36L35.61 45.36L35.61 34.9C35.61 31.89 34.18 29.24 31.71 27.73L29.41 26.29L27.11 27.79ZM48.65 28.37C48.83 28.37 48.94 28.43 49.06 28.48C51.35 29.7 52.73 31.89 52.73 34.44L52.73 45.3L55.2 45.3L55.2 25.25L42.79 25.25L42.79 45.3L44.4 45.3L44.4 34.44C44.4 31.95 45.84 29.64 48.08 28.48C48.31 28.37 48.48 28.37 48.65 28.37ZM48.88 35.88C50.21 36.58 50.89 37.62 50.89 39L50.89 45.24L52.04 45.24L52.04 34.67L45.26 34.67L45.26 45.3L46.41 45.3L46.41 39.06C46.41 36.69 48.48 35.88 48.54 35.88L48.83 35.88L48.88 35.88ZM48.48 36.63C48.02 36.98 47.1 37.62 47.1 39L47.1 45.24L50.15 45.24L50.15 39.06C50.15 38.02 49.63 37.21 48.71 36.58L48.65 36.52L48.48 36.63ZM38.2 45.3L42.16 45.3L42.16 25.25L38.2 25.25L38.2 45.3ZM29.35 25.48C29.41 25.48 29.47 25.48 29.58 25.54L32.11 27.16C34.75 28.83 36.36 31.66 36.36 34.78L36.36 45.3L37.51 45.3L37.51 22.42L21.37 22.42L21.37 45.3L22.52 45.3L22.52 34.9C22.52 31.72 24.07 28.83 26.71 27.16L29.24 25.54C29.24 25.48 29.29 25.48 29.35 25.48ZM16.66 45.3L20.62 45.3L20.62 25.25L16.66 25.25L16.66 45.3ZM10.16 28.43C10.34 28.43 10.45 28.48 10.57 28.54C12.86 29.64 14.24 31.89 14.24 34.38L14.24 45.24L15.85 45.24L15.85 25.25L3.44 25.25L3.44 45.3L6.03 45.3L6.03 34.44C6.14 31.95 7.52 29.7 9.7 28.6C9.88 28.48 10.05 28.43 10.16 28.43ZM10.45 35.88C11.77 36.58 12.46 37.62 12.46 39L12.46 45.24L13.61 45.24L13.61 34.67L6.83 34.67L6.83 45.3L7.98 45.3L7.98 39.06C7.98 36.69 10.05 35.88 10.11 35.88L10.34 35.88C10.39 35.88 10.39 35.88 10.45 35.88ZM10.05 36.63C9.59 36.98 8.67 37.62 8.67 39L8.67 45.24L11.71 45.24L11.71 39.06C11.71 38.02 11.2 37.21 10.28 36.58L10.22 36.52L10.05 36.63ZM48.54 29.01C46.7 29.93 45.49 31.72 45.26 33.8L45.26 33.92L52.1 33.92L52.1 33.8C51.87 31.78 50.66 30.05 48.83 29.01L48.54 29.01ZM10.05 29.01C8.21 29.93 7 31.72 6.77 33.8L6.77 33.92L13.61 33.92L13.61 33.8C13.44 31.78 12.23 30.05 10.34 29.01L10.05 29.01ZM42.91 24.5L57.27 24.5L58.02 22.36L42.91 22.36L42.91 24.5ZM38.2 24.5L42.16 24.5L42.16 22.36L38.2 22.36L38.2 24.5ZM16.66 24.5L20.62 24.5L20.62 22.36L16.66 22.36L16.66 24.5ZM1.6 24.5L15.97 24.5L15.97 22.36L0.86 22.36L1.6 24.5ZM42.91 21.72L55.32 21.72L55.32 17.74L42.91 17.74L42.91 21.72ZM38.2 21.72L42.16 21.72L42.16 17.74L38.2 17.74L38.2 21.72ZM35.44 21.72L37.57 21.72L37.57 17.74L35.44 17.74L35.44 21.72ZM32.63 21.72L34.75 21.72L34.75 17.74L32.63 17.74L32.63 21.72ZM29.81 21.72L31.94 21.72L31.94 17.74L29.81 17.74L29.81 21.72ZM27 21.72L29.12 21.72L29.12 17.74L27 17.74L27 21.72ZM24.18 21.72L26.31 21.72L26.31 17.74L24.18 17.74L24.18 21.72ZM21.37 21.72L23.49 21.72L23.49 17.74L21.37 17.74L21.37 21.72ZM16.66 21.72L20.62 21.72L20.62 17.74L16.66 17.74L16.66 21.72ZM3.5 21.72L15.91 21.72L15.91 17.74L3.5 17.74L3.5 21.72ZM42.91 16.98L56.29 16.98L56.29 14.85L42.91 14.85L42.91 16.98ZM38.2 16.98L42.16 16.98L42.16 11.09L38.2 11.09L38.2 16.98ZM21.37 16.98L37.57 16.98L37.57 11.09L21.37 11.09L21.37 16.98ZM16.66 16.98L20.62 16.98L20.62 11.09L16.66 11.09L16.66 16.98ZM2.58 16.98L15.97 16.98L15.97 14.85L2.58 14.85L2.58 16.98ZM39.18 10.4L41.3 10.4L41.3 5.43L39.18 5.43L39.18 10.4ZM20.39 10.4L38.43 10.4L38.43 8.26L20.39 8.26L20.39 10.4ZM17.57 10.4L19.7 10.4L19.7 5.43L17.57 5.43L17.57 10.4ZM40.21 2.6C39.58 2.6 39.18 3 39.18 3.64L39.18 4.68L41.3 4.68L41.3 3.64C41.24 3 40.84 2.6 40.21 2.6ZM18.67 2.6C18.03 2.6 17.63 3 17.63 3.64L17.63 4.68L19.76 4.68L19.76 3.64C19.7 3 19.3 2.6 18.67 2.6Z" fill="#1A1A1A" fill-opacity="1.000000" fill-rule="nonzero"/>
	<path id="Vector" d="M0.34 46C0.11 46 0 45.88 0 45.65C0 45.42 0.11 45.3 0.34 45.3L2.81 45.3L2.81 25.25L1.32 25.25C1.14 25.25 1.03 25.19 0.97 25.02L0 22.19C0 22.07 0 21.9 0.05 21.84C0.17 21.72 0.22 21.67 0.34 21.67L2.81 21.67L2.81 17.68L2.24 17.68C2.01 17.68 1.89 17.56 1.89 17.33L1.89 14.5C1.89 14.27 2.01 14.15 2.24 14.15L15.97 14.15L15.97 10.74C15.97 10.51 16.08 10.4 16.31 10.4L16.89 10.4L16.89 3.64C16.89 2.83 17.4 2.13 18.21 1.96L18.32 1.96L18.32 0.34C18.32 0.11 18.44 0 18.67 0C18.9 0 19.01 0.11 19.01 0.34L19.01 1.96L19.13 1.96C19.87 2.13 20.45 2.83 20.45 3.64L20.45 7.51L38.49 7.51L38.49 3.64C38.49 2.83 39 2.13 39.81 1.96L39.92 1.96L39.92 0.34C39.86 0.11 39.98 0 40.21 0C40.44 0 40.55 0.11 40.55 0.34L40.55 1.96L40.67 1.96C41.42 2.13 41.99 2.83 41.99 3.64L41.99 10.4L42.56 10.4C42.79 10.4 42.91 10.51 42.91 10.74L42.91 14.15L56.64 14.15C56.87 14.15 56.98 14.27 56.98 14.5L56.98 17.33C56.98 17.56 56.87 17.68 56.64 17.68L56.07 17.68L56.07 21.67L58.54 21.67C58.65 21.67 58.77 21.72 58.82 21.84L58.88 21.9C58.94 22.01 59 22.07 58.94 22.19L58.02 25.02C57.96 25.13 57.79 25.25 57.67 25.25L56.18 25.25L56.18 45.3L58.65 45.3C58.88 45.3 59 45.42 59 45.65C59 45.88 58.88 46 58.65 46L0.34 46ZM27.11 27.79C24.7 29.29 23.2 31.95 23.2 34.84L23.2 45.36L35.61 45.36L35.61 34.9C35.61 31.89 34.18 29.24 31.71 27.73L29.41 26.29L27.11 27.79ZM48.65 28.37C48.83 28.37 48.94 28.43 49.06 28.48C51.35 29.7 52.73 31.89 52.73 34.44L52.73 45.3L55.2 45.3L55.2 25.25L42.79 25.25L42.79 45.3L44.4 45.3L44.4 34.44C44.4 31.95 45.84 29.64 48.08 28.48C48.31 28.37 48.48 28.37 48.65 28.37ZM48.88 35.88C50.21 36.58 50.89 37.62 50.89 39L50.89 45.24L52.04 45.24L52.04 34.67L45.26 34.67L45.26 45.3L46.41 45.3L46.41 39.06C46.41 36.69 48.48 35.88 48.54 35.88L48.83 35.88L48.88 35.88ZM48.48 36.63C48.02 36.98 47.1 37.62 47.1 39L47.1 45.24L50.15 45.24L50.15 39.06C50.15 38.02 49.63 37.21 48.71 36.58L48.65 36.52L48.48 36.63ZM38.2 45.3L42.16 45.3L42.16 25.25L38.2 25.25L38.2 45.3ZM29.35 25.48C29.41 25.48 29.47 25.48 29.58 25.54L32.11 27.16C34.75 28.83 36.36 31.66 36.36 34.78L36.36 45.3L37.51 45.3L37.51 22.42L21.37 22.42L21.37 45.3L22.52 45.3L22.52 34.9C22.52 31.72 24.07 28.83 26.71 27.16L29.24 25.54C29.24 25.48 29.29 25.48 29.35 25.48ZM16.66 45.3L20.62 45.3L20.62 25.25L16.66 25.25L16.66 45.3ZM10.16 28.43C10.34 28.43 10.45 28.48 10.57 28.54C12.86 29.64 14.24 31.89 14.24 34.38L14.24 45.24L15.85 45.24L15.85 25.25L3.44 25.25L3.44 45.3L6.03 45.3L6.03 34.44C6.14 31.95 7.52 29.7 9.7 28.6C9.88 28.48 10.05 28.43 10.16 28.43ZM10.45 35.88C11.77 36.58 12.46 37.62 12.46 39L12.46 45.24L13.61 45.24L13.61 34.67L6.83 34.67L6.83 45.3L7.98 45.3L7.98 39.06C7.98 36.69 10.05 35.88 10.11 35.88L10.34 35.88C10.39 35.88 10.39 35.88 10.45 35.88ZM10.05 36.63C9.59 36.98 8.67 37.62 8.67 39L8.67 45.24L11.71 45.24L11.71 39.06C11.71 38.02 11.2 37.21 10.28 36.58L10.22 36.52L10.05 36.63ZM48.54 29.01C46.7 29.93 45.49 31.72 45.26 33.8L45.26 33.92L52.1 33.92L52.1 33.8C51.87 31.78 50.66 30.05 48.83 29.01L48.54 29.01ZM10.05 29.01C8.21 29.93 7 31.72 6.77 33.8L6.77 33.92L13.61 33.92L13.61 33.8C13.44 31.78 12.23 30.05 10.34 29.01L10.05 29.01ZM42.91 24.5L57.27 24.5L58.02 22.36L42.91 22.36L42.91 24.5ZM38.2 24.5L42.16 24.5L42.16 22.36L38.2 22.36L38.2 24.5ZM16.66 24.5L20.62 24.5L20.62 22.36L16.66 22.36L16.66 24.5ZM1.6 24.5L15.97 24.5L15.97 22.36L0.86 22.36L1.6 24.5ZM42.91 21.72L55.32 21.72L55.32 17.74L42.91 17.74L42.91 21.72ZM38.2 21.72L42.16 21.72L42.16 17.74L38.2 17.74L38.2 21.72ZM35.44 21.72L37.57 21.72L37.57 17.74L35.44 17.74L35.44 21.72ZM32.63 21.72L34.75 21.72L34.75 17.74L32.63 17.74L32.63 21.72ZM29.81 21.72L31.94 21.72L31.94 17.74L29.81 17.74L29.81 21.72ZM27 21.72L29.12 21.72L29.12 17.74L27 17.74L27 21.72ZM24.18 21.72L26.31 21.72L26.31 17.74L24.18 17.74L24.18 21.72ZM21.37 21.72L23.49 21.72L23.49 17.74L21.37 17.74L21.37 21.72ZM16.66 21.72L20.62 21.72L20.62 17.74L16.66 17.74L16.66 21.72ZM3.5 21.72L15.91 21.72L15.91 17.74L3.5 17.74L3.5 21.72ZM42.91 16.98L56.29 16.98L56.29 14.85L42.91 14.85L42.91 16.98ZM38.2 16.98L42.16 16.98L42.16 11.09L38.2 11.09L38.2 16.98ZM21.37 16.98L37.57 16.98L37.57 11.09L21.37 11.09L21.37 16.98ZM16.66 16.98L20.62 16.98L20.62 11.09L16.66 11.09L16.66 16.98ZM2.58 16.98L15.97 16.98L15.97 14.85L2.58 14.85L2.58 16.98ZM39.18 10.4L41.3 10.4L41.3 5.43L39.18 5.43L39.18 10.4ZM20.39 10.4L38.43 10.4L38.43 8.26L20.39 8.26L20.39 10.4ZM17.57 10.4L19.7 10.4L19.7 5.43L17.57 5.43L17.57 10.4ZM40.21 2.6C39.58 2.6 39.18 3 39.18 3.64L39.18 4.68L41.3 4.68L41.3 3.64C41.24 3 40.84 2.6 40.21 2.6ZM18.67 2.6C18.03 2.6 17.63 3 17.63 3.64L17.63 4.68L19.76 4.68L19.76 3.64C19.7 3 19.3 2.6 18.67 2.6Z" fill="#000000" fill-opacity="0.200000" fill-rule="nonzero"/>
</svg>
